<mxfile host="app.diagrams.net" agent="Mozilla/5.0 (Windows NT 10.0; Win64; x64) AppleWebKit/537.36 (KHTML, like Gecko) Chrome/136.0.0.0 Safari/537.36" version="28.0.9">
  <diagram id="C5RBs43oDa-KdzZeNtuy" name="Page-1">
    <mxGraphModel dx="1864" dy="820" grid="1" gridSize="10" guides="1" tooltips="1" connect="1" arrows="1" fold="1" page="1" pageScale="1" pageWidth="827" pageHeight="1169" math="0" shadow="0">
      <root>
        <mxCell id="WIyWlLk6GJQsqaUBKTNV-0" />
        <mxCell id="WIyWlLk6GJQsqaUBKTNV-1" parent="WIyWlLk6GJQsqaUBKTNV-0" />
        <mxCell id="Y5_ZQyWNp5h-3w8IgG4R-46" value="" style="rounded=1;whiteSpace=wrap;html=1;strokeColor=#666666;fillColor=#666666;" parent="WIyWlLk6GJQsqaUBKTNV-1" vertex="1">
          <mxGeometry x="40" y="120" width="680" height="160" as="geometry" />
        </mxCell>
        <mxCell id="Y5_ZQyWNp5h-3w8IgG4R-44" value="" style="rounded=1;whiteSpace=wrap;html=1;strokeColor=#FF8000;fillColor=#0000FF;" parent="WIyWlLk6GJQsqaUBKTNV-1" vertex="1">
          <mxGeometry x="40" y="320" width="680" height="440" as="geometry" />
        </mxCell>
        <mxCell id="Y5_ZQyWNp5h-3w8IgG4R-40" value="" style="rounded=1;whiteSpace=wrap;html=1;strokeColor=#00FF00;fillColor=#33FF33;" parent="WIyWlLk6GJQsqaUBKTNV-1" vertex="1">
          <mxGeometry x="70" y="600" width="650" height="130" as="geometry" />
        </mxCell>
        <mxCell id="Y5_ZQyWNp5h-3w8IgG4R-39" value="" style="rounded=1;whiteSpace=wrap;html=1;strokeColor=#3399FF;fillColor=#3399FF;" parent="WIyWlLk6GJQsqaUBKTNV-1" vertex="1">
          <mxGeometry x="70" y="450" width="650" height="130" as="geometry" />
        </mxCell>
        <mxCell id="Y5_ZQyWNp5h-3w8IgG4R-5" value="&lt;font style=&quot;font-size: 20px;&quot;&gt;Belief&lt;/font&gt;" style="ellipse;whiteSpace=wrap;html=1;aspect=fixed;" parent="WIyWlLk6GJQsqaUBKTNV-1" vertex="1">
          <mxGeometry x="200" y="460" width="110" height="110" as="geometry" />
        </mxCell>
        <mxCell id="Y5_ZQyWNp5h-3w8IgG4R-6" value="" style="endArrow=classic;html=1;rounded=0;exitX=1;exitY=1;exitDx=0;exitDy=0;entryX=0;entryY=0;entryDx=0;entryDy=0;" parent="WIyWlLk6GJQsqaUBKTNV-1" source="Y5_ZQyWNp5h-3w8IgG4R-50" target="Y5_ZQyWNp5h-3w8IgG4R-5" edge="1">
          <mxGeometry width="50" height="50" relative="1" as="geometry">
            <mxPoint x="208.28427124745258" y="413.2842712474526" as="sourcePoint" />
            <mxPoint x="530" y="370" as="targetPoint" />
          </mxGeometry>
        </mxCell>
        <mxCell id="Y5_ZQyWNp5h-3w8IgG4R-7" value="&lt;font style=&quot;font-size: 20px;&quot;&gt;Action&lt;/font&gt;" style="ellipse;whiteSpace=wrap;html=1;aspect=fixed;" parent="WIyWlLk6GJQsqaUBKTNV-1" vertex="1">
          <mxGeometry x="280" y="325" width="110" height="110" as="geometry" />
        </mxCell>
        <mxCell id="Y5_ZQyWNp5h-3w8IgG4R-8" value="" style="endArrow=classic;html=1;rounded=0;exitX=0.579;exitY=0.024;exitDx=0;exitDy=0;exitPerimeter=0;entryX=0;entryY=1;entryDx=0;entryDy=0;" parent="WIyWlLk6GJQsqaUBKTNV-1" source="Y5_ZQyWNp5h-3w8IgG4R-5" edge="1" target="Y5_ZQyWNp5h-3w8IgG4R-7">
          <mxGeometry width="50" height="50" relative="1" as="geometry">
            <mxPoint x="368" y="438" as="sourcePoint" />
            <mxPoint x="292" y="410" as="targetPoint" />
          </mxGeometry>
        </mxCell>
        <mxCell id="Y5_ZQyWNp5h-3w8IgG4R-9" value="&lt;font style=&quot;font-size: 20px;&quot;&gt;Observation&lt;/font&gt;" style="ellipse;whiteSpace=wrap;html=1;aspect=fixed;" parent="WIyWlLk6GJQsqaUBKTNV-1" vertex="1">
          <mxGeometry x="350" y="160" width="110" height="110" as="geometry" />
        </mxCell>
        <mxCell id="Y5_ZQyWNp5h-3w8IgG4R-10" value="" style="endArrow=classic;html=1;rounded=0;exitX=0.5;exitY=0;exitDx=0;exitDy=0;entryX=0;entryY=1;entryDx=0;entryDy=0;" parent="WIyWlLk6GJQsqaUBKTNV-1" source="Y5_ZQyWNp5h-3w8IgG4R-7" target="Y5_ZQyWNp5h-3w8IgG4R-9" edge="1">
          <mxGeometry width="50" height="50" relative="1" as="geometry">
            <mxPoint x="448" y="462" as="sourcePoint" />
            <mxPoint x="472" y="438" as="targetPoint" />
          </mxGeometry>
        </mxCell>
        <mxCell id="Y5_ZQyWNp5h-3w8IgG4R-14" value="&lt;font style=&quot;font-size: 20px;&quot;&gt;Belief&lt;/font&gt;" style="ellipse;whiteSpace=wrap;html=1;aspect=fixed;" parent="WIyWlLk6GJQsqaUBKTNV-1" vertex="1">
          <mxGeometry x="200" y="600" width="110" height="110" as="geometry" />
        </mxCell>
        <mxCell id="Y5_ZQyWNp5h-3w8IgG4R-15" value="" style="endArrow=classic;html=1;rounded=0;exitX=0.5;exitY=1;exitDx=0;exitDy=0;entryX=0;entryY=0;entryDx=0;entryDy=0;" parent="WIyWlLk6GJQsqaUBKTNV-1" source="Y5_ZQyWNp5h-3w8IgG4R-50" target="Y5_ZQyWNp5h-3w8IgG4R-14" edge="1">
          <mxGeometry width="50" height="50" relative="1" as="geometry">
            <mxPoint x="180" y="425" as="sourcePoint" />
            <mxPoint x="540" y="680" as="targetPoint" />
          </mxGeometry>
        </mxCell>
        <mxCell id="Y5_ZQyWNp5h-3w8IgG4R-17" value="" style="endArrow=classic;html=1;rounded=0;exitX=1;exitY=0;exitDx=0;exitDy=0;entryX=0.5;entryY=1;entryDx=0;entryDy=0;" parent="WIyWlLk6GJQsqaUBKTNV-1" source="Y5_ZQyWNp5h-3w8IgG4R-14" target="Y5_ZQyWNp5h-3w8IgG4R-7" edge="1">
          <mxGeometry width="50" height="50" relative="1" as="geometry">
            <mxPoint x="378" y="748" as="sourcePoint" />
            <mxPoint x="480" y="640" as="targetPoint" />
          </mxGeometry>
        </mxCell>
        <mxCell id="Y5_ZQyWNp5h-3w8IgG4R-45" value="&lt;font style=&quot;font-size: 20px;&quot;&gt;System&lt;/font&gt;" style="text;html=1;align=center;verticalAlign=middle;whiteSpace=wrap;rounded=0;" parent="WIyWlLk6GJQsqaUBKTNV-1" vertex="1">
          <mxGeometry x="80" y="340" width="60" height="30" as="geometry" />
        </mxCell>
        <mxCell id="Y5_ZQyWNp5h-3w8IgG4R-49" value="&lt;font style=&quot;font-size: 24px;&quot;&gt;User messages&amp;nbsp;&lt;/font&gt;" style="text;html=1;align=center;verticalAlign=middle;whiteSpace=wrap;rounded=0;" parent="WIyWlLk6GJQsqaUBKTNV-1" vertex="1">
          <mxGeometry x="50" y="130" width="190" height="30" as="geometry" />
        </mxCell>
        <mxCell id="Y5_ZQyWNp5h-3w8IgG4R-50" value="&lt;font style=&quot;font-size: 20px;&quot;&gt;Observation&lt;/font&gt;" style="ellipse;whiteSpace=wrap;html=1;aspect=fixed;" parent="WIyWlLk6GJQsqaUBKTNV-1" vertex="1">
          <mxGeometry x="90" y="160" width="110" height="110" as="geometry" />
        </mxCell>
        <mxCell id="Y5_ZQyWNp5h-3w8IgG4R-101" value="&lt;font style=&quot;font-size: 20px;&quot;&gt;Belief&lt;/font&gt;" style="ellipse;whiteSpace=wrap;html=1;aspect=fixed;" parent="WIyWlLk6GJQsqaUBKTNV-1" vertex="1">
          <mxGeometry x="450" y="460" width="110" height="110" as="geometry" />
        </mxCell>
        <mxCell id="Y5_ZQyWNp5h-3w8IgG4R-102" value="" style="endArrow=classic;html=1;rounded=0;exitX=1;exitY=1;exitDx=0;exitDy=0;entryX=0;entryY=0;entryDx=0;entryDy=0;" parent="WIyWlLk6GJQsqaUBKTNV-1" source="Y5_ZQyWNp5h-3w8IgG4R-9" target="Y5_ZQyWNp5h-3w8IgG4R-101" edge="1">
          <mxGeometry width="50" height="50" relative="1" as="geometry">
            <mxPoint x="478.2842712474617" y="413.2842712474617" as="sourcePoint" />
            <mxPoint x="800" y="370" as="targetPoint" />
          </mxGeometry>
        </mxCell>
        <mxCell id="Y5_ZQyWNp5h-3w8IgG4R-103" value="&lt;font style=&quot;font-size: 20px;&quot;&gt;Action&lt;/font&gt;" style="ellipse;whiteSpace=wrap;html=1;aspect=fixed;" parent="WIyWlLk6GJQsqaUBKTNV-1" vertex="1">
          <mxGeometry x="540" y="325" width="110" height="110" as="geometry" />
        </mxCell>
        <mxCell id="Y5_ZQyWNp5h-3w8IgG4R-104" value="" style="endArrow=classic;html=1;rounded=0;exitX=0.682;exitY=0.061;exitDx=0;exitDy=0;exitPerimeter=0;entryX=0;entryY=1;entryDx=0;entryDy=0;" parent="WIyWlLk6GJQsqaUBKTNV-1" source="Y5_ZQyWNp5h-3w8IgG4R-101" edge="1" target="Y5_ZQyWNp5h-3w8IgG4R-103">
          <mxGeometry width="50" height="50" relative="1" as="geometry">
            <mxPoint x="638" y="438" as="sourcePoint" />
            <mxPoint x="562" y="410" as="targetPoint" />
          </mxGeometry>
        </mxCell>
        <mxCell id="Y5_ZQyWNp5h-3w8IgG4R-105" value="&lt;font style=&quot;font-size: 20px;&quot;&gt;Observation&lt;/font&gt;" style="ellipse;whiteSpace=wrap;html=1;aspect=fixed;" parent="WIyWlLk6GJQsqaUBKTNV-1" vertex="1">
          <mxGeometry x="610" y="160" width="110" height="110" as="geometry" />
        </mxCell>
        <mxCell id="Y5_ZQyWNp5h-3w8IgG4R-106" value="" style="endArrow=classic;html=1;rounded=0;exitX=0.5;exitY=0;exitDx=0;exitDy=0;entryX=0;entryY=1;entryDx=0;entryDy=0;" parent="WIyWlLk6GJQsqaUBKTNV-1" source="Y5_ZQyWNp5h-3w8IgG4R-103" target="Y5_ZQyWNp5h-3w8IgG4R-105" edge="1">
          <mxGeometry width="50" height="50" relative="1" as="geometry">
            <mxPoint x="718" y="462" as="sourcePoint" />
            <mxPoint x="742" y="438" as="targetPoint" />
          </mxGeometry>
        </mxCell>
        <mxCell id="Y5_ZQyWNp5h-3w8IgG4R-108" value="&lt;font style=&quot;font-size: 20px;&quot;&gt;Belief&lt;/font&gt;" style="ellipse;whiteSpace=wrap;html=1;aspect=fixed;" parent="WIyWlLk6GJQsqaUBKTNV-1" vertex="1">
          <mxGeometry x="450" y="600" width="110" height="110" as="geometry" />
        </mxCell>
        <mxCell id="Y5_ZQyWNp5h-3w8IgG4R-109" value="" style="endArrow=classic;html=1;rounded=0;exitX=0.5;exitY=1;exitDx=0;exitDy=0;entryX=0;entryY=0;entryDx=0;entryDy=0;" parent="WIyWlLk6GJQsqaUBKTNV-1" source="Y5_ZQyWNp5h-3w8IgG4R-9" target="Y5_ZQyWNp5h-3w8IgG4R-108" edge="1">
          <mxGeometry width="50" height="50" relative="1" as="geometry">
            <mxPoint x="450" y="425" as="sourcePoint" />
            <mxPoint x="810" y="680" as="targetPoint" />
          </mxGeometry>
        </mxCell>
        <mxCell id="Y5_ZQyWNp5h-3w8IgG4R-110" value="" style="endArrow=classic;html=1;rounded=0;exitX=1;exitY=0;exitDx=0;exitDy=0;entryX=0.5;entryY=1;entryDx=0;entryDy=0;" parent="WIyWlLk6GJQsqaUBKTNV-1" source="Y5_ZQyWNp5h-3w8IgG4R-108" target="Y5_ZQyWNp5h-3w8IgG4R-103" edge="1">
          <mxGeometry width="50" height="50" relative="1" as="geometry">
            <mxPoint x="648" y="748" as="sourcePoint" />
            <mxPoint x="750" y="640" as="targetPoint" />
          </mxGeometry>
        </mxCell>
        <mxCell id="Y5_ZQyWNp5h-3w8IgG4R-112" value="&lt;font style=&quot;font-size: 20px;&quot;&gt;User&#39;s mental state&lt;/font&gt;" style="text;html=1;align=center;verticalAlign=middle;whiteSpace=wrap;rounded=0;" parent="WIyWlLk6GJQsqaUBKTNV-1" vertex="1">
          <mxGeometry x="80" y="470" width="60" height="40" as="geometry" />
        </mxCell>
        <mxCell id="Y5_ZQyWNp5h-3w8IgG4R-113" value="&lt;font style=&quot;font-size: 20px;&quot;&gt;User&#39;s belief about other character&#39;s mental state&lt;/font&gt;" style="text;html=1;align=center;verticalAlign=middle;whiteSpace=wrap;rounded=0;" parent="WIyWlLk6GJQsqaUBKTNV-1" vertex="1">
          <mxGeometry x="70" y="630" width="130" height="40" as="geometry" />
        </mxCell>
        <mxCell id="Y5_ZQyWNp5h-3w8IgG4R-115" value="" style="endArrow=classic;html=1;rounded=0;exitX=1;exitY=1;exitDx=0;exitDy=0;" parent="WIyWlLk6GJQsqaUBKTNV-1" source="Y5_ZQyWNp5h-3w8IgG4R-105" edge="1">
          <mxGeometry width="50" height="50" relative="1" as="geometry">
            <mxPoint x="748.2842712474617" y="413.2842712474617" as="sourcePoint" />
            <mxPoint x="740" y="390" as="targetPoint" />
          </mxGeometry>
        </mxCell>
        <mxCell id="Y5_ZQyWNp5h-3w8IgG4R-122" value="" style="endArrow=classic;html=1;rounded=0;exitX=0.5;exitY=1;exitDx=0;exitDy=0;" parent="WIyWlLk6GJQsqaUBKTNV-1" source="Y5_ZQyWNp5h-3w8IgG4R-105" edge="1">
          <mxGeometry width="50" height="50" relative="1" as="geometry">
            <mxPoint x="720" y="425" as="sourcePoint" />
            <mxPoint x="740" y="520" as="targetPoint" />
          </mxGeometry>
        </mxCell>
        <mxCell id="Y5_ZQyWNp5h-3w8IgG4R-125" value="" style="endArrow=classic;html=1;rounded=0;exitX=1;exitY=0.5;exitDx=0;exitDy=0;entryX=0;entryY=0.5;entryDx=0;entryDy=0;" parent="WIyWlLk6GJQsqaUBKTNV-1" source="Y5_ZQyWNp5h-3w8IgG4R-7" target="Y5_ZQyWNp5h-3w8IgG4R-101" edge="1">
          <mxGeometry width="50" height="50" relative="1" as="geometry">
            <mxPoint x="330" y="350" as="sourcePoint" />
            <mxPoint x="490" y="310" as="targetPoint" />
          </mxGeometry>
        </mxCell>
        <mxCell id="Y5_ZQyWNp5h-3w8IgG4R-126" value="" style="endArrow=classic;html=1;rounded=0;exitX=1;exitY=1;exitDx=0;exitDy=0;entryX=0;entryY=0.5;entryDx=0;entryDy=0;" parent="WIyWlLk6GJQsqaUBKTNV-1" source="Y5_ZQyWNp5h-3w8IgG4R-7" target="Y5_ZQyWNp5h-3w8IgG4R-108" edge="1">
          <mxGeometry width="50" height="50" relative="1" as="geometry">
            <mxPoint x="370" y="390" as="sourcePoint" />
            <mxPoint x="490" y="515" as="targetPoint" />
          </mxGeometry>
        </mxCell>
        <mxCell id="Y5_ZQyWNp5h-3w8IgG4R-127" value="" style="endArrow=classic;html=1;rounded=0;exitX=1;exitY=0.5;exitDx=0;exitDy=0;" parent="WIyWlLk6GJQsqaUBKTNV-1" source="Y5_ZQyWNp5h-3w8IgG4R-103" edge="1">
          <mxGeometry width="50" height="50" relative="1" as="geometry">
            <mxPoint x="630" y="380" as="sourcePoint" />
            <mxPoint x="770" y="540" as="targetPoint" />
          </mxGeometry>
        </mxCell>
        <mxCell id="Y5_ZQyWNp5h-3w8IgG4R-128" value="" style="endArrow=classic;html=1;rounded=0;exitX=1;exitY=1;exitDx=0;exitDy=0;" parent="WIyWlLk6GJQsqaUBKTNV-1" source="Y5_ZQyWNp5h-3w8IgG4R-103" edge="1">
          <mxGeometry width="50" height="50" relative="1" as="geometry">
            <mxPoint x="618" y="408" as="sourcePoint" />
            <mxPoint x="770" y="690" as="targetPoint" />
          </mxGeometry>
        </mxCell>
      </root>
    </mxGraphModel>
  </diagram>
</mxfile>
